<?xml version="1.0" encoding="utf-8"?>
<!-- Generator: Adobe Illustrator 28.1.0, SVG Export Plug-In . SVG Version: 6.00 Build 0)  -->
<svg version="1.1" id="Layer_1" xmlns="http://www.w3.org/2000/svg" xmlns:xlink="http://www.w3.org/1999/xlink" x="0px" y="0px"
	 viewBox="0 0 450 450" style="enable-background:new 0 0 450 450;" xml:space="preserve">
<style type="text/css">
	.st0{fill:#FEFEFE;}
	.st1{fill:#4E543F;}
	.st2{fill:#4F5440;}
	.st3{fill:#BA8161;}
	.st4{fill:#BB8463;}
	.st5{fill:#6A715B;}
	.st6{fill:#D7D8D3;}
	.st7{fill:#C5C6C0;}
	.st8{fill:#EAEFE4;}
	.st9{fill:#9EB682;}
	.st10{fill:#9EB582;}
	.st11{fill:#FDFDFD;}
	.st12{fill:#9DB581;}
	.st13{fill:#FCFBFB;}
	.st14{fill:#6E7B5A;}
	.st15{fill:#6B7757;}
	.st16{fill:#8FA476;}
	.st17{fill:#505641;}
	.st18{fill:#73815D;}
	.st19{fill:#687355;}
	.st20{fill:#7D8D66;}
	.st21{fill:#768561;}
</style>
<g>
	<g>
		<path class="st0" d="M304.45,225.25c0,34.73-0.02,69.47,0.05,104.2c0,1.71-0.34,2.05-2.05,2.05c-51.8-0.06-103.6-0.06-155.41,0
			c-1.71,0-2.05-0.34-2.05-2.05c0.06-69.47,0.06-138.94,0-208.41c0-1.71,0.33-2.05,2.05-2.05c51.8,0.06,103.6,0.06,155.41,0
			c1.71,0,2.05,0.33,2.05,2.05C304.44,155.78,304.45,190.52,304.45,225.25z"/>
		<path class="st1" d="M230.93,252.59c1.35,5.29,2.86,10.55,4.02,15.89c1.3,5.97,0.8,12.07,0.75,18.12
			c-0.01,0.72-0.35,1.45-0.63,2.14c-1.07,2.59-2.94,2.97-5.08,1.13c-5.03-4.31-7.87-10-10.18-16.03c-0.17-0.45-0.16-0.99-0.88-1.33
			c-0.81,0.89-1.16,2.06-1.66,3.16c-2.08,4.63-4.17,9.27-7.89,12.88c-2.7,2.62-5.03,2.11-6.11-1.49
			c-1.56-5.18-1.33-10.53-0.78-15.81c0.77-7.44,2.43-14.71,5.32-21.65c0.15-0.36,0.38-0.76,0.01-1.28
			c-3.97,3.24-7.93,6.49-11.89,9.72c-1.63,1.33-3.43,2.35-5.46,2.89c-2.07,0.55-3.13-0.28-3.21-2.45c-0.18-5.21,2.53-9.4,5.01-13.59
			c3.36-5.69,8.65-9.55,13.67-13.64c1.35-1.1,2.71-2.19,4.07-3.28c1.03,0,0.9,0.76,0.92,1.41c-1.44,2.56-3.96,3.99-6.18,5.69
			c-5.58,4.27-10.15,9.34-13.17,15.74c-0.82,1.74-1.51,3.52-1.92,5.4c-0.14,0.64-0.37,1.38,0.27,1.85c0.64,0.47,1.28,0.02,1.87-0.24
			c1.15-0.51,2.17-1.23,3.16-1.99c4.23-3.24,8.37-6.59,12.27-10.23c0.43-0.4,0.84-0.81,1.34-1.12c0.69-0.42,1.39-0.57,2.1-0.06
			c0.62,0.44,0.73,1.08,0.62,1.78c-0.25,1.66-0.79,3.24-1.4,4.78c-3.62,9.17-5.38,18.68-5.26,28.54c0.02,1.93,0.39,3.81,0.62,5.7
			c0.1,0.84,0.34,1.72,1.28,1.97c0.95,0.25,1.55-0.48,2.09-1.1c1.65-1.9,2.83-4.11,3.99-6.32c1.62-3.1,3.16-6.23,4.53-9.46
			c0.41-0.95,0.79-2.19,2.15-2.12c1.3,0.06,1.35,1.33,1.68,2.22c1.63,4.47,3.31,8.89,6.23,12.73c1.07,1.4,2.26,2.66,3.53,3.87
			c0.47,0.45,0.97,1.03,1.73,0.67c0.69-0.33,0.81-1.06,0.82-1.72c0.04-4.24,0.31-8.49-0.15-12.72c-0.97-8.9-4.16-17.29-6.03-25.98
			c-0.09-0.4-0.29-0.78-0.38-1.19c-0.14-0.68-0.21-1.36,0.51-1.76c0.67-0.38,1.33-0.14,1.85,0.32c1.36,1.22,2.73,2.44,3.99,3.77
			c1.78,1.88,3.73,3.58,5.76,5.16c2.78,2.16,5.06,2.24,7.7,0.01c4.5-3.79,8.16-8.3,10.74-13.63c0.24-0.5,0.75-1.11,0.3-1.6
			c-0.58-0.64-1.24-0.02-1.8,0.24c-2.27,1.05-4.42,2.32-6.49,3.72c-3.82,2.59-6.7,2.43-10.14-0.6c-3.83-3.37-6.86-7.47-10.34-11.16
			c-0.28-1.45-0.22-2.55,1.74-1.7c2.56,2.94,5.06,5.94,7.7,8.8c1.23,1.33,2.71,2.44,4.1,3.61c1.06,0.9,2.15,0.95,3.46,0.34
			c3.09-1.46,5.61-3.89,8.8-5.17c0.85-0.34,1.67-0.74,2.54-1c1.22-0.37,2.34,0.1,3.15,0.95c0.76,0.8,0.52,1.84,0.09,2.81
			c-2.98,6.66-7.58,12.09-13.08,16.75c-3.28,2.78-6.63,2.17-10.41-0.74c-1.89-1.45-3.43-3.37-5.48-4.66
			C230.01,250.94,230.94,251.87,230.93,252.59z"/>
		<path class="st2" d="M227.45,151.43c4.6-3.69,10.25-4.17,15.91-5.52c-1.37,8.41-6.85,12.99-13.48,16.6
			c-1.74,0.94-3.58,1.69-5.38,2.53c0.06,0.3-0.81,0.09-0.33,0.56c0.2,0.2,0.57,0.22,0.85,0.36c12.35,3.7,17,16.13,13.86,27.5
			c-1.36,4.9-3.78,9.17-6.65,13.23c-1,1.42,0.2,2.31,0.28,3.45c0.5,1.47-0.01,1.88-1.42,1.38c-0.94-0.51-1.34,0.19-1.76,0.8
			c-1.35,1.96-2.56,4.02-4.22,5.75c-0.88,0.92-0.76,1.89-0.08,2.91c0.63,0.96,1.42,1.81,1.94,2.85c0.28,0.78,0.9,1.34,1.32,2.02
			c0.61,1,0.5,1.83-0.7,2.3c-1.86-0.79-2.81-2.47-3.86-4.03c-2.29-3.38-2.76-3.38-5.77-0.51c-1.76,1.67-3.11,3.89-5.71,4.52
			c-0.8-0.45-0.76-1.17-0.6-1.92c1.12-1.89,2.75-3.31,4.46-4.61c1.52-1.15,1.82-2.13,0.37-3.6c-1.92-1.95-3.48-4.22-5.07-6.44
			c-0.9-1.25-1.51-1.29-2.37-0.12c-0.94,0.42-1.79,0.66-1.63-0.9c1.56-2.53,0.4-4.36-1.14-6.53c-3.92-5.52-7.11-11.32-6.57-18.58
			c0.6-7.94,4.52-13.48,11.26-17.23c1.78-0.99,3.64-1.95,5.71-2.28c-0.12-1.01-1-0.9-1.53-1.13c-4.62-2.08-7.89-5.34-9.63-10.19
			c-0.84-2.33-2.06-4.53-3.16-6.76c-0.3-0.61-0.78-1.14-0.2-1.78c0.52-0.58,1.08-0.19,1.58,0.07c2.89,1.45,5.84,2.78,8.64,4.39
			c3.82,2.2,6.04,5.77,7.64,10.13c1.57-2.38,2.29-5,4.39-6.67C225.67,153.44,226.42,152.26,227.45,151.43z"/>
		<path class="st3" d="M227.54,227.98c0.74-0.63,0.99-1.27,0.19-2.08c-0.51-0.51-1.23-0.9-1.19-1.79c1.76,0.11,2.62-0.64,2.8-2.47
			c0.28-2.86,1.12-5.65,1.03-8.56c-0.02-0.73,0-1.5,0.63-2.05c1.08,0.68,1.54,0.3,1.52-0.89c1.07,5.34-0.39,10.39-1.84,15.43
			c-0.32,1.1-0.86,2.16-0.14,3.29c-1.41-0.41-1.52,0.44-1.43,1.48c-0.05,0.66-0.26,1.19-1.02,1.28c-0.7-0.36-1.06-0.98-1.3-1.69
			C226.75,229.17,226.87,228.47,227.54,227.98z"/>
		<path class="st4" d="M211.98,226.11c0.03,0.64-0.23,1.35,0.48,1.81c0.89,0.61,1.25,1.46,1.19,2.52c-0.35,0.57-0.9,0.8-1.54,0.85
			c-1.03-0.14-1.31-0.92-1.5-1.78c-0.03-0.58-0.07-1.16-0.62-1.54c-1.7-5.21-2.91-10.5-2.85-16.02c0.01-0.49-0.14-1,0.24-1.42
			c0.23,0.99,0.79,1.01,1.52,0.51c1.18,1.02,0.75,2.45,0.87,3.71C210.15,218.61,210.97,222.38,211.98,226.11z"/>
		<path class="st5" d="M227.45,151.43c-0.71,1.23-1.45,2.42-3.07,2.54C225.35,153.06,226.11,151.89,227.45,151.43z"/>
		<path class="st6" d="M230.93,252.59c-0.23-0.69-0.47-1.37-0.68-2.07c-0.13-0.42-0.1-0.89,0.46-0.85c0.4,0.03,0.69,0.41,0.7,0.88
			C230.77,251.11,231.21,251.94,230.93,252.59z"/>
		<path class="st7" d="M225.03,165.95c-0.71-0.06-1.47,0.07-2.1-0.43c0.33-0.85,1.04-0.38,1.58-0.5
			C224.68,165.34,224.85,165.65,225.03,165.95z"/>
		<path class="st8" d="M187.92,215.45c-0.17,0.33-0.42,0.5-0.77,0.27c-0.28-0.18-0.55-0.42-0.39-0.79c0.14-0.35,0.47-0.44,0.8-0.28
			C187.88,214.8,188.02,215.08,187.92,215.45z"/>
		<path class="st9" d="M210.62,229.51c0.48,0.51,0.95,1.02,1.43,1.53c2.54,2.61,5.03,5.3,7.03,8.32c1.29,1.94,0.46,4.21-0.47,6.22
			c-0.94,2.05-1.91,4.06-2.17,6.34c-0.22,2,0.67,3.36,2.3,4.34c0.53,0.32,1.12,0.37,1.59-0.15c0.38-0.42,0.36-0.92,0.14-1.4
			c-0.29-0.64-0.75-0.78-1.43-0.49c-1.92,0.83-1.96-0.72-1.92-1.78c0.07-2.09,0.69-4.09,1.67-5.96c0.94-1.79,1.62-3.65,1.59-5.71
			c-0.01-0.58-0.02-1.26,0.35-1.69c2.28-2.69,4.52-5.43,7.33-7.6c0.34-0.38,0.68-0.75,1.01-1.13c2.23,1.52,3.65,3.8,5.41,5.76
			c1.83,2.05,3.64,4.11,5.83,5.77c3,2.27,5.51,2.26,8.59-0.03c2.35-1.75,4.93-3.08,7.54-4.36c0.69-0.34,1.44-0.68,2.09-0.07
			c0.78,0.73-0.02,1.38-0.3,2c-2.58,5.72-6.56,10.39-11.14,14.55c-3.03,2.75-6.11,2.63-9.11-0.09c-3.08-2.78-6.27-5.45-8.99-8.6
			c-0.45-0.52-1-0.98-1.72-0.59c-0.41,0.22-0.37,0.69-0.2,1.11c2.21,5.66,2.98,11.72,4.82,17.47c2.32,7.26,2.26,14.72,2.16,22.19
			c-0.01,0.57-0.1,1.17-0.27,1.72c-0.65,2.12-1.5,2.33-3.13,0.86c-4.29-3.88-7.1-8.71-9.07-14.09c-0.51-1.4-1.02-2.81-1.49-4.23
			c-0.16-0.48-0.22-1.04-0.8-1.14c-0.78-0.14-0.92,0.56-1.15,1.07c-2.11,4.71-4.2,9.42-6.9,13.84c-0.82,1.35-1.66,2.69-2.86,3.76
			c-1.9,1.69-3.06,1.44-3.68-1.05c-0.48-1.92-0.75-3.92-0.8-5.9c-0.3-10.18,1.52-19.98,5.32-29.43c0.56-1.38,0.91-2.85,1.34-4.29
			c0.19-0.64,0.47-1.35-0.17-1.85c-0.82-0.63-1.44,0.09-1.94,0.57c-3.47,3.34-7.22,6.36-10.97,9.37c-1.94,1.55-3.85,3.18-6.18,4.15
			c-0.65,0.27-1.45,0.85-2.09,0.28c-0.64-0.57-0.59-1.48-0.41-2.34c0.89-4.14,2.88-7.76,5.08-11.32c3.32-5.36,8.32-8.98,13.06-12.88
			C208.19,231.53,209.41,230.52,210.62,229.51z"/>
		<path class="st9" d="M201.41,187.19c-0.17-12.6,9.19-19.68,19.07-20.2c8.42-0.44,15.4,6.39,17.08,14.49
			c1.56,7.53-0.39,14.25-4.44,20.61c-3.34,5.24-6.45,10.62-10.32,15.52c-1.39,1.76-2.11,1.48-3.45,0.15
			c-3.33-3.29-5.64-7.37-8.64-10.91c-2.8-3.3-5.2-6.87-7.18-10.73C202.06,193.23,201.24,190.26,201.41,187.19z"/>
		<path class="st9" d="M213.5,230.39c-0.34-0.83-0.69-1.65-1.03-2.48c2.4-1.75,4.37-3.97,6.51-6.02c1.69-1.62,2.89-1.51,4.2,0.43
			c1.34,1.98,2.66,3.96,4.37,5.65c-0.17,0.69-0.33,1.38-0.5,2.07c-1.01,3.5-3.83,5.61-6.27,7.99c-0.52,0.5-1.35,0.35-1.82-0.18
			C216.89,235.55,214.28,233.63,213.5,230.39z"/>
		<path class="st10" d="M221.99,160.52c2.81-6.76,8.13-10.24,15.13-11.45c1.23-0.21,2.75-1.75,3.57-0.49
			c0.72,1.11-0.67,2.64-1.4,3.78c-3.22,5.05-8.16,7.9-13.5,10.18c-0.76,0.33-1.52,0.67-2.28,1c-0.54,0.28-1.15,0.48-1.49-0.16
			c-0.27-0.51,0.25-0.87,0.59-1.22c1.7-1.79,3.57-3.37,5.68-4.66c0.43-0.59,1.23-0.64,1.7-1.17c0.38-0.24,0.79-0.42,1.16-0.68
			c-0.53,0.31-1.13,0.52-1.57,0.97c-0.68,0.21-1.16,0.73-1.72,1.13c-1.62,1.08-3.17,2.23-4.51,3.65c-0.32,0.34-0.7,0.87-1.2,0.59
			C221.51,161.66,221.7,161.06,221.99,160.52z"/>
		<path class="st11" d="M211.98,226.11c-1.47-1.09-1.62-2.86-1.94-4.38c-0.74-3.51-1.37-7.06-1.14-10.69
			c0.52-0.51,0.16-1.7,1.1-1.77c0.86-0.06,1.03,0.93,1.47,1.5c2.02,2.61,3.81,5.41,6.18,7.73c0.92,0.9,1.02,1.56,0.01,2.41
			C215.7,222.57,214.14,224.67,211.98,226.11z"/>
		<path class="st12" d="M212.95,161.56c-4.72-2.91-6.14-7.84-8.26-13.02c7.17,2.77,12.39,6.57,14.08,13.97
			c0.37,1.61-0.36,1.21-1.21,0.95c-2.82-1.27-3.78-4.21-5.66-6.32c-0.48-0.8-1.22-1.43-1.56-2.3c-0.16,0.09,0.05,0.13,0.04,0.2
			c0.29,0.83,1.05,1.31,1.42,2.07c0.45,1.6,2.76,2.1,2.44,4.15C213.9,161.77,213.48,161.89,212.95,161.56z"/>
		<path class="st13" d="M230.99,211.03c0.55,4.19-0.36,8.24-1.41,12.23c-0.72,2.73-0.84,2.7-3.05,0.85
			c-0.77-1.63-2.68-2.71-2.75-4.57c-0.07-1.86,2.09-2.59,2.88-4.14c0.82-1.6,1.95-3.03,2.96-4.53
			C230.17,210.05,230.68,209.78,230.99,211.03z"/>
		<path class="st14" d="M221.99,160.52c0.04,0.77-0.07,1.78,1.08,0.61c1.44-1.46,2.9-2.89,4.89-3.62c0.2-0.21,0.39-0.19,0.57,0.02
			c-1.93,1.61-4.02,3.03-5.7,4.93c-1.16,1.31,0.11,0.94,0.69,1.07c-0.65,0.73-1.68,0.38-2.84,1.18
			C221.53,163.14,220.78,161.6,221.99,160.52z"/>
		<path class="st15" d="M214.06,160.98c-0.4-1.62-2.17-2.34-2.58-3.95c0.18-0.18,0.36-0.18,0.55-0.02c1.84,2.15,3.68,4.31,5.53,6.46
			c-0.72,0.02-1.5,0.3-2.07-0.42C215.26,162.19,214.16,161.93,214.06,160.98z"/>
		<path class="st16" d="M214.06,160.98c0.52,0.66,1.77,0.81,1.43,2.07c-0.85-0.5-1.7-0.99-2.54-1.49
			C213.4,161.52,213.82,161.43,214.06,160.98z"/>
		<path class="st17" d="M213.5,230.39c1.51,1.97,3.04,3.91,4.51,5.91c1.15,1.56,2.22,2.07,3.64,0.24c1.72-2.22,3.59-4.33,5.39-6.49
			c0.69,0.22,1.01,0.72,1.05,1.42c-1.63,1.97-2.86,4.27-5,5.82c-1.66,1.19-2.4,2.78-2.23,4.92c0.14,1.87-1.01,3.46-1.75,5.12
			c-0.97,2.17-1.91,4.38-1.12,6.88c1.02-0.15,1.12-2.46,2.5-0.98c0.95,1.02,1.4,2.33,0.43,3.62c-0.94,1.25-1.93,0.47-2.81-0.14
			c-1.86-1.29-2.74-2.92-2.16-5.31c0.39-1.62,0.73-3.21,1.47-4.72c2.62-5.3,2.46-6.56-1.75-10.64c-1.53-1.48-2.63-3.17-3.61-5.01
			C212.53,230.82,213.01,230.61,213.5,230.39z"/>
		<path class="st18" d="M229.41,156.46c0.93-0.81,1.73-1.89,3.86-1.47c-1.42,0.68-2.32,1.12-3.22,1.55
			C229.8,156.78,229.59,156.75,229.41,156.46z"/>
		<path class="st19" d="M229.41,156.46c0.21,0.03,0.43,0.05,0.64,0.08c-0.51,0.33-1.02,0.66-1.52,1c-0.19-0.01-0.38-0.02-0.57-0.02
			C228.21,156.85,228.74,156.56,229.41,156.46z"/>
		<path class="st20" d="M212.03,157.01c-0.18,0.01-0.37,0.01-0.55,0.02c-0.78-0.44-1.39-1.02-1.52-1.97
			c0.06-0.3,0.25-0.47,0.54-0.53C211.15,155.27,211.86,155.98,212.03,157.01z"/>
		<path class="st21" d="M210.51,154.53c-0.18,0.18-0.36,0.35-0.54,0.53c-0.38-0.39-1-0.96-0.47-1.35
			C210.17,153.21,210.4,153.95,210.51,154.53z"/>
	</g>
</g>
</svg>
