<?xml version="1.0" encoding="utf-8"?>
<!-- Generator: Adobe Illustrator 28.1.0, SVG Export Plug-In . SVG Version: 6.00 Build 0)  -->
<svg version="1.1" id="Layer_1" xmlns="http://www.w3.org/2000/svg" xmlns:xlink="http://www.w3.org/1999/xlink" x="0px" y="0px"
	 viewBox="0 0 450 450" style="enable-background:new 0 0 450 450;" xml:space="preserve">
<style type="text/css">
	.st0{fill:#FEFEFE;}
	.st1{fill:#4E533F;}
	.st2{fill:#B97C5A;}
	.st3{fill:#B87B59;}
	.st4{fill:#9EB682;}
	.st5{fill:#9EB582;}
	.st6{fill:#FDFDFD;}
	.st7{fill:#5C644B;}
	.st8{fill:#99AF7E;}
	.st9{fill:#4F5440;}
	.st10{fill:#5E664C;}
	.st11{fill:#5E674D;}
</style>
<g>
	<g>
		<path class="st0" d="M142.06,225.06c0-36.31,0.02-72.61-0.06-108.92c0-1.9,0.5-2.13,2.21-2.13c53.86,0.05,107.73,0.05,161.59,0
			c1.75,0,2.2,0.29,2.2,2.15c-0.06,72.53-0.06,145.06,0,217.59c0,1.95-0.52,2.26-2.33,2.26c-53.86-0.05-107.73-0.05-161.59,0
			c-1.67,0-2.07-0.27-2.07-2.02C142.07,297.67,142.06,261.36,142.06,225.06z"/>
		<path class="st1" d="M212.1,222.52c1.96-3.62,0.14-6.37-1.79-9.35c-1.8-2.76-3.07-5.88-4.44-8.9c-3.32-7.32-0.47-16.98,5.44-21.82
			c2.88-2.35,5.65-4.78,9.98-5.54c-4.45-1.87-7.97-4.08-10.06-7.88c-1.87-3.4-3-7.17-5.02-10.5c-0.22-0.37-0.22-0.8,0.09-1.16
			c0.32-0.36,0.74-0.44,1.13-0.23c5.05,2.71,10.87,4.26,14.23,9.52c1.03,1.61,1.99,3.23,2.58,5.56
			c4.43-10.78,13.55-13.42,23.51-14.85c-2.11,10.45-9.93,15.07-18.75,18.87c7.79,2.66,12.37,8.27,14.78,15.7
			c1.81,5.58,0.77,11.11-1.55,16.37c-1.5,3.4-3.18,6.74-5.29,9.83c-1.15,1.68,0.87,2.86,0.59,4.38c0.14,0.72-0.38,0.77-0.87,0.84
			c-0.87-0.14-1.25-0.72-1.38-1.6c-2,2.71-3.9,5.45-6.05,7.99c-1.07,1.27-0.92,2.09,0.2,3.13c1.45,1.36,2.81,2.81,4.02,4.41
			c0.38,1.03,0.41,1.93-0.84,2.38c-2.29-0.89-3.44-3.05-5.11-4.62c-2.74-2.59-2.62-2.56-5.35-0.14c-1.63,1.44-2.99,3.35-5.34,3.82
			c-0.66-0.3-0.76-0.88-0.74-1.52c0.47-2.11,2.52-2.77,3.82-4.12c2.03-2.1,2.13-2.22,0.29-4.5c-1.78-2.21-3.36-4.55-5.11-6.87
			c-0.82,0.18-0.75,1.26-1.47,1.5C212.87,223.44,212.38,223.21,212.1,222.52z"/>
		<path class="st1" d="M234.96,239.48c4.18,5.65,9.57,10.26,13.66,16.03c2.34,3.31,4.53,6.63,5.96,10.41
			c0.68,1.79,1.15,3.93-0.17,5.38c-1.62,1.78-3.7,0.27-5.27-0.52c-3.69-1.85-7.13-4.16-10.21-6.95c-1.34-1.21-2.68-2.44-4.57-2.88
			c1.99,8.35,4.14,16.57,5.86,24.87c0.88,4.24,1.59,8.66,0.3,13c-1.11,3.73-3.48,4.47-6.3,1.65c-2.91-2.91-5.7-6.02-7.64-9.73
			c-1.3-2.48-2.49-5.03-3.79-7.67c-2.14,5.04-4.09,10.09-7.42,14.43c-1.17,1.52-2.36,2.97-4.31,3.6c-2.23,0.72-3.38,0.27-3.94-1.94
			c-1-4-0.74-8.08-0.39-12.12c0.7-7.9,3.05-15.44,5.17-23.03c0.35-1.23,0.17-2.61,0.26-4.33c-2.48,2.03-4.72,3.91-7.02,5.73
			c-2.39,1.89-4.36,4.31-7.25,5.57c-1.94,0.85-4.26,1.87-5.86,0.58c-1.86-1.49-1.23-4.15-0.61-6.3c1.23-4.31,3.75-7.94,6.73-11.18
			c5.12-5.56,10.62-10.75,16.3-15.75c1.08-0.01,1.39,0.63,1.34,1.57c-0.73,1.57-2.19,2.46-3.37,3.61
			c-5.42,5.26-11.36,10.03-15.64,16.39c-1.45,2.15-2.65,4.43-3.36,6.94c-0.25,0.87-0.47,1.88,0.39,2.55c0.77,0.6,1.59,0.1,2.36-0.19
			c2.82-1.03,4.81-3.24,7.03-5.1c2.43-2.03,4.82-4.09,7.33-6.02c0.92-0.71,1.98-1.5,3.18-0.82c1.23,0.7,0.94,2.03,0.85,3.17
			c-0.34,4.6-1.62,8.99-2.89,13.39c-1.93,6.66-3.16,13.45-2.99,20.42c0.04,1.54-0.33,3.74,1.25,4.25c1.72,0.56,2.82-1.39,3.74-2.74
			c2.92-4.29,5.02-9.01,7.05-13.76c0.16-0.38,0.3-0.78,0.48-1.15c0.45-0.91,0.93-1.97,2.07-1.91c1.09,0.05,1.27,1.18,1.53,2.05
			c1.92,6.43,5.39,11.95,9.93,16.83c0.68,0.73,1.37,1.7,2.46,1.45c1.27-0.28,1.38-1.6,1.51-2.64c0.53-4.19-0.15-8.32-1.09-12.37
			c-1.79-7.7-3.56-15.41-5.76-23c-0.3-1.04-0.73-2.19,0.25-3.04c1.11-0.96,2.2-0.15,3.21,0.38c2.67,1.41,4.91,3.42,7.24,5.3
			c2.41,1.95,5.06,3.51,7.82,4.88c0.64,0.32,1.42,0.9,2.07,0.25c0.59-0.58,0.26-1.42,0.05-2.14c-0.43-1.53-1.12-2.97-1.96-4.31
			c-3.22-5.16-6.75-10.1-11.04-14.46c-2.04-2.07-4.13-4.1-5.47-6.74C234.01,240.6,233.76,239.68,234.96,239.48z"/>
		<path class="st2" d="M234.96,239.48c-0.68,0.52-0.43,1.31-0.56,1.98c-0.2,0.74-0.58,1.25-1.45,1.18
			c-0.56-0.25-0.96-0.65-1.15-1.25c-0.02-0.73,0.09-1.4,0.75-1.85c0.65-0.52,0.8-1.17,0.5-1.94c1.44-3.96,2.13-8.08,2.72-12.23
			c0.12-0.8,0-1.66,0.58-2.34c0.39-0.17,0.78-0.35,1.17-0.52c1.36,2.77-0.01,5.48-0.25,8.19
			C236.99,233.73,235.82,236.58,234.96,239.48z"/>
		<path class="st3" d="M215.44,239.88c-0.01-0.72-0.38-1.21-0.99-1.54c0.09-2.93-1.47-5.46-2-8.26c-0.48-2.54-0.38-5.04-0.34-7.56
			c0.44,0.14,0.88,0.27,1.32,0.4c0.2,0.15,0.46,0.32,0.47,0.56c0.03,4.61,1.91,8.88,2.47,13.39c0.12,0.57,0.09,1.21,0.65,1.6
			c0.89,0.81,1.49,1.73,1.22,3c-0.26,0.49-0.67,0.76-1.23,0.78C215.8,241.91,215.56,240.94,215.44,239.88z"/>
		<path class="st4" d="M243,197.06c0.1,6.31-2.58,11.48-5.37,16.58c-3.15,5.76-7.18,10.9-11.41,15.89c-0.86,1.01-1.27,1.29-2.28,0.1
			c-6.93-8.13-12.46-17.12-16.85-26.83c-0.78-1.73-1.13-3.59-1.09-5.56c0.16-8.09,5.96-14.41,12.79-17.76
			c7.54-3.69,13.59-1.39,18.8,4.49c2.06,2.33,3.28,5.17,4.44,8.02C242.72,193.68,243.28,195.42,243,197.06z"/>
		<path class="st4" d="M218.08,241.48c-0.36-1.01-0.71-2.01-1.07-3.02c1.98-1.76,4.08-3.42,5.91-5.32c1.27-1.32,2.26-1.12,3.35-0.02
			c2.11,2.12,4.18,4.27,6.27,6.41c0.01,0.69-0.19,1.31-0.59,1.87c-1.2,3.44-3.91,5.67-6.48,8c-0.54,0.49-1.36,0.6-1.82,0.05
			C221.58,246.96,218.61,245.07,218.08,241.48z"/>
		<path class="st4" d="M226.94,170.89c2.55-5.9,7.44-8.82,13.36-10.31c1.12-0.28,2.23-0.55,3.33-0.9c0.47-0.15,1.1-0.36,1.38,0.05
			c0.2,0.3,0.04,0.94-0.11,1.37c-1.28,3.7-4.01,6.39-7,8.5c-3.53,2.49-7.33,4.81-11.82,5.4c0.22-2.42,2.6-2.95,3.88-4.45
			c0.77-0.46,1.38-1.13,2.15-1.6c0.22-0.19,0.56-0.22,0.71-0.55c-0.24,0.28-0.55,0.4-0.8,0.61c-0.77,0.47-1.39,1.14-2.16,1.61
			c-0.97,0.36-1.31,1.79-2.64,1.56C226.68,171.85,226.72,171.39,226.94,170.89z"/>
		<path class="st5" d="M220.46,174.49c-3.89-1.17-6.62-3.67-8.33-7.3c-1.05-2.24-2.03-4.52-3.06-6.83
			c6.05,0.06,12.38,6.73,14.21,14.87c-0.41-0.09-0.81-0.17-1.22-0.26c-1.76-1-2.9-2.59-3.91-4.08
			C218.52,172.23,220.31,172.83,220.46,174.49z"/>
		<path class="st6" d="M216.36,236.87c-1.98-4.44-3.03-9.07-2.93-13.94c0.66-0.74,0.39-1.96,1.42-2.62c2.36,3.29,4.41,6.8,7.26,9.69
			c0.8,0.81,0.29,1.3-0.28,1.83C220.01,233.51,218.19,235.19,216.36,236.87z"/>
		<path class="st0" d="M236.35,223.03c0.31,4.73-1,9.18-2.28,13.64c-0.16,0.54-0.49,0.83-1.02,0.93c-1.73-1.77-3.45-3.55-5.19-5.31
			c-0.54-0.54-1.09-0.97-0.28-1.79c2.83-2.87,4.87-6.38,7.52-9.56C235.56,221.71,235.95,222.37,236.35,223.03z"/>
		<path class="st7" d="M220.46,174.49c-1.3-1.64-2.61-3.29-3.91-4.93c0.13-0.12,0.26-0.24,0.39-0.37c1.71,1.92,3.42,3.85,5.13,5.77
			C221.3,175.59,220.95,174.82,220.46,174.49z"/>
		<path class="st7" d="M229.98,170.51c-1.3,1.5-2.61,3-3.91,4.49c-0.87-0.41-0.27-0.92-0.09-1.4c0.4-0.64,0.71-1.37,1.57-1.55
			c0.89-0.39,1.26-1.63,2.46-1.52L229.98,170.51z"/>
		<path class="st8" d="M227.54,172.05c-0.52,0.52-1.05,1.03-1.57,1.55c-0.06-1.04,0.23-1.95,0.96-2.71
			C227,171.35,227.07,171.81,227.54,172.05z"/>
		<path class="st4" d="M215.44,239.88c0.52,0.72,1.03,1.44,1.55,2.16c2.22,2.78,4.53,5.49,6.78,8.24c1.59,1.94,0.81,4.14-0.09,6.13
			c-1,2.2-1.99,4.38-2.3,6.81c-0.2,1.63,0.29,2.95,1.6,3.92c0.57,0.42,1.24,1.19,1.95,0.53c0.69-0.63,0.52-1.49-0.12-2.16
			c-0.91-0.16-1.04,1.55-2.1,0.83c-0.85-0.58-0.98-1.51-0.95-2.44c0.04-1.17,0.21-2.33,0.68-3.4c1.24-2.81,2.65-5.56,2.58-8.75
			c-0.01-0.24,0.07-0.52,0.23-0.7c2.53-2.91,4.9-5.97,7.78-8.56c0.45-0.33,0.91-0.67,1.36-1c4.07,5.23,9.16,9.58,12.88,15.12
			c2.27,3.37,4.75,6.61,5.99,10.56c0.3,0.96,0.6,2.04-0.17,2.83c-0.87,0.89-1.7-0.15-2.46-0.46c-4.9-2-8.78-5.54-12.94-8.67
			c-1.54-1.16-3.46-3.3-5.09-2.3c-1.75,1.07,0.25,3.27,0.64,4.95c1.84,7.88,4.02,15.69,5.59,23.62c0.72,3.65,1.48,7.53,0.12,11.3
			c-0.82,2.29-1.52,2.65-3.31,0.99c-3.8-3.5-6.99-7.54-9.1-12.32c-0.87-1.97-1.58-4.01-2.39-6c-0.25-0.63,0.17-1.77-0.88-1.8
			c-0.97-0.03-1.25,1-1.54,1.76c-1.22,3.18-2.55,6.31-4.19,9.3c-1.24,2.25-2.49,4.51-3.94,6.63c-0.98,1.43-2.53,3.13-4.18,2.56
			c-1.31-0.45-1.3-2.72-1.36-4.27c-0.28-7.34,0.89-14.5,2.96-21.52c1.28-4.36,2.47-8.74,2.95-13.27c0.1-0.92,0.53-2.13-0.44-2.79
			c-1.06-0.72-1.92,0.29-2.63,0.87c-3.48,2.8-6.96,5.61-10.28,8.6c-1.6,1.43-3.38,2.39-5.32,3.1c-1.65,0.61-2.75,0.18-2.78-1.87
			c-0.02-1.56,0.52-2.93,1.14-4.28c2.4-5.18,5.98-9.44,10.14-13.33C207.68,247.14,211.38,243.32,215.44,239.88z"/>
		<path class="st9" d="M233.04,242.47c-1.36,1.65-2.27,3.65-3.93,5.09c-2.13,1.85-4.11,3.69-3.72,7.06
			c0.18,1.56-1.08,3.07-1.77,4.58c-0.99,2.17-1.85,4.4-0.66,6.99c0.94-0.51,0.4-2.94,2.12-1.82c1.35,0.88,1.16,2.48,0.67,3.86
			c-0.2,0.57-0.79,0.79-1.46,0.64c-1.82-0.42-4.03-3.19-3.71-5.06c0.33-1.93,0.66-3.88,1.56-5.7c3.62-7.28,1.88-6.12-2.08-11.07
			c-1.24-1.55-2.61-2.98-3.08-5c0.36-0.18,0.73-0.37,1.09-0.55c1.4,2.43,3.38,4.42,5.02,6.67c0.99,1.35,1.7,1.25,2.89,0.11
			c2.21-2.11,3.91-4.63,5.97-6.85C232.46,241.62,232.85,241.95,233.04,242.47z"/>
		<path class="st7" d="M232.01,169.04c0.38-0.93,1.2-1.2,2.59-1.53c-0.91,1.11-1.69,1.43-2.62,1.51L232.01,169.04z"/>
		<path class="st10" d="M230.01,170.54c0.44-0.81,0.94-1.53,2-1.5c0,0-0.03-0.03-0.03-0.03c-0.4,0.86-0.94,1.53-2,1.5
			C229.98,170.51,230.01,170.54,230.01,170.54z"/>
		<path class="st11" d="M214.82,166.63c-0.89-0.32-0.97-1.01-1.35-1.9C214.71,165.14,214.6,166,214.82,166.63z"/>
	</g>
</g>
</svg>
