<?xml version="1.0" encoding="utf-8"?>
<!-- Generator: Adobe Illustrator 28.1.0, SVG Export Plug-In . SVG Version: 6.00 Build 0)  -->
<svg version="1.1" id="Layer_1" xmlns="http://www.w3.org/2000/svg" xmlns:xlink="http://www.w3.org/1999/xlink" x="0px" y="0px"
	 viewBox="0 0 200 200" style="enable-background:new 0 0 200 200;" xml:space="preserve">
<style type="text/css">
	.st0{fill:#FEFDFD;}
	.st1{fill:#4F5440;}
	.st2{fill:#B97B58;}
	.st3{fill:#515541;}
	.st4{fill:#505541;}
	.st5{fill:#A1B884;}
	.st6{fill:#EADACF;}
	.st7{fill:#FEFDFC;}
	.st8{fill:#FFFFFF;}
</style>
<g>
	<g>
		<path class="st0" d="M-8.49-23.1c95.22,0,190.44,0.01,285.66-0.06c2.09,0,2.39,0.5,2.39,2.46c-0.06,118.36-0.06,236.73,0,355.09
			c0,1.99-0.35,2.44-2.41,2.44c-190.36-0.06-380.72-0.06-571.08,0c-2.2,0-2.52-0.56-2.51-2.59c0.06-118.36,0.05-236.73,0.01-355.09
			c0-1.83,0.36-2.31,2.27-2.31C-198.93-23.09-103.71-23.1-8.49-23.1z"/>
		<path class="st1" d="M70.3,111.75c3.07,2.42,5.12,5.82,8.06,8.37c4.84,4.2,9.29,8.83,14.76,12.29c5.16,3.27,6.14,3.17,11-0.35
			c5.33-3.86,10.69-7.63,15.39-12.29c1.83-1.81,3.47-3.74,4.99-5.78c0.8-1.06,1.57-2.1,2.64-2.91c1.08,0.37,1.76,1.21,2.45,2.04
			c-5.79,8.93-13.56,15.75-22.63,21.17c-1.82,1.09-3.43,2.5-5.55,3.14c-0.91,0.27-1.66,1.16-1.74,2.48
			c-0.34,6.16,0.86,12.04,3.57,17.51c3.9,7.85,11.79,9.35,19.06,5.87c6.02-2.88,10.45-7.55,15.16-11.87
			c3.58-3.28,7.47-5.72,11.99-7.27c1.01-0.34,1.8-0.58,1.74-1.93c-0.06-1.25,0.79-1.92,2.02-2.09c1.4-0.2,2.12,0.72,2.24,1.8
			c0.21,1.8,0.23,3.65,0.04,5.45c-0.09,0.92-0.66,1.75-2.01,1.76c-1.91,0.02-2.21-1.32-2.54-2.58c-6.85,1.22-11.18,6.12-15.76,10.49
			c-4.56,4.36-9.51,7.95-15.53,9.97c-4.68,1.57-13.06,0.01-16.59-5.2c-4.03-5.95-5.84-12.3-5.8-19.26c0.02-2.85-0.33-4.49-3.45-5.79
			c-5.43-2.27-10.34-5.62-14.37-10.11c-3.9-4.34-8.64-7.94-11.68-13.05C68.49,112.81,69.42,112.32,70.3,111.75z"/>
		<path class="st1" d="M98.57,104.8c1.37-4.13,2.34-7.96,4.2-11.43c3.16-5.88,7.3-10.93,12.56-15.12c3.99-3.18,8.26-5.94,12.4-8.88
			c0.54-0.38,1.04-0.82,1.59-1.18c0.65-0.42,0.91-1.76,1.88-1.27c0.95,0.48,0.55,1.7,0.39,2.5c-1.48,7.78-2.31,15.66-3.86,23.44
			c-1.38,6.89-4.86,12.36-10.05,16.82c-4.06,3.49-8.69,6.18-13.3,8.91c-4.49,2.66-8.7,2.06-13.14,0.21
			c-11.98-5-18.06-14.46-20.57-26.76c-1.27-6.23-2.82-12.41-4.26-18.61c-0.2-0.88-0.62-1.93,0.26-2.51
			c1.02-0.67,1.61,0.46,2.28,1.01c5.41,4.41,10.66,9.05,16.27,13.2c3.87,2.86,7.49,5.72,9.97,9.98
			C96.92,98.07,97.64,101.19,98.57,104.8z"/>
		<path class="st2" d="M70.3,111.75c-0.22,1.48-1.37,1.67-2.54,1.86c-3.16-4.23-6.52-8.32-8.76-13.17
			c-3.09-6.69-5.53-13.63-5.63-21.03c-0.07-5.6,1.47-10.87,4.51-15.86c4.32-7.09,10.55-9.77,18.42-9.78c1.27,0,2.44,0.23,3.52,0.91
			c-0.08,0.74-0.35,1.3-1.2,1.34c-6.45-1.06-15.5,1.84-19.9,10.98c-4.27,8.86-3.38,17.54-0.17,26.31c0.77,2.1,1.49,4.22,2.34,6.29
			c0.19,0.42,0.45,0.81,0.71,1.49c-0.24-0.83-0.62-1.32-0.81-1.89c-2.49-6.09-4.58-12.25-4.59-18.96
			c-0.01-10.97,5.06-21.47,16.39-24.02c2.06-0.46,4.09-0.66,6.15-0.05c0.41,0.5,0.43,1.01,0.03,1.52c-3.25,0.05-6.36,0.7-9.31,2.12
			c-5.88,2.82-9.07,7.69-10.17,13.91c-1.21,6.85-0.65,13.51,1.87,20.15C63.56,100.2,66.01,106.41,70.3,111.75z"/>
		<path class="st2" d="M129.59,113.12c-1.35-0.05-1.85-1.11-2.45-2.04c3.45-4.97,6.16-10.31,8.05-16.06
			c2.79-8.49,4.78-17.11,0.92-25.71c-3.05-6.8-7.59-11.14-15.82-11.54c-0.57-0.03-1.18,0.08-1.59-0.48
			c-0.24-0.65,0.12-1.03,0.61-1.34c5.14-0.76,9.47,0.95,13.17,4.43c7.97,7.49,8.91,16.83,6.98,26.89c-0.29,1.5-0.55,3.03-0.79,3.79
			c1.34-5.76,2.63-12.29,1.23-18.93c-1.28-6.05-3.47-11.59-9.49-14.78c-2.77-1.47-5.55-2.16-8.61-1.8c-0.91,0.11-1.8,0.32-2.72,0.07
			c-0.74-0.43-0.94-1-0.48-1.76c3.02-0.54,6.05-1.14,9.07-0.17c6.37,2.05,10.73,6.15,13,12.54c3.44,9.68,1.86,19.08-1.08,28.51
			C137.47,101.55,133.46,107.29,129.59,113.12z"/>
		<path class="st3" d="M118.61,53.86c0.1,0.52-0.03,1.14,0.59,1.44c0.28,0.3,0.28,0.62,0.04,0.95c-0.18,0.34-0.36,0.69-0.54,1.03
			c-3.46,0.65-5.93,3.11-8.8,4.83c-0.35,0.21-0.62,0.56-0.97,0.78c-0.84,0.53-1.8,0.7-2.48-0.1c-0.67-0.8-0.12-1.57,0.56-2.14
			C110.49,57.72,114.07,54.98,118.61,53.86z"/>
		<path class="st4" d="M78.76,57.68c-0.03-0.48-0.07-0.96-0.1-1.44c-0.14-0.11-0.18-0.21-0.12-0.3c0.06-0.08,0.11-0.12,0.17-0.12
			c0.37-0.38,0.75-0.76,1.12-1.14c4.41,0.57,7.22,3.64,10.09,6.54c0.59,0.6,0.54,1.62-0.14,2.25c-0.66,0.61-1.41,0.29-1.99-0.27
			C85.19,60.69,82.46,58.4,78.76,57.68z"/>
		<path class="st5" d="M99.15,115.81c0.28-6.61,1.2-12.39,3.43-17.92c4-9.88,11.03-17.08,19.93-22.73c2.33-1.48,4.6-3.11,7.05-4.86
			c0.29,2.92-0.61,5.44-0.96,8c-0.69,5.12-1.61,10.23-2.71,15.29c-1.27,5.86-4.47,10.64-8.99,14.53
			c-4.94,4.26-10.34,7.79-16.91,10.52c2.21-5.01,4.83-9.18,7.68-13.18c2.31-3.24,5.19-6.04,8.21-8.64c0.58-0.5,1.08-0.89,0.55-1.59
			c-0.55-0.73-1.04-0.05-1.46,0.26c-3.73,2.84-6.79,6.31-9.39,10.18C103.49,108.8,101.54,112.03,99.15,115.81z"/>
		<path class="st5" d="M97.63,115.17c-2.77-1.23-4.4-3.35-6.2-5.24c-5.16-5.42-9.32-11.56-12.86-18.14
			c-0.35-0.65-0.56-1.92-1.67-1.35c-1.17,0.6-0.13,1.44,0.2,2.07c4.13,7.8,9.28,14.85,15.59,21.03c1.18,1.16,2.49,2.19,3.75,3.26
			c0.46,0.39,0.99,0.76,0.65,1.43c-0.35,0.68-1.01,0.46-1.54,0.28c-6.3-2.08-12-4.99-16.16-10.47c-4.75-6.26-6.88-13.48-8.12-21.02
			c-0.72-4.38-2.07-8.6-3.16-13.46c2.61,2.08,4.88,3.78,7.02,5.63c3.37,2.92,6.81,5.73,10.52,8.23c5.91,3.99,9.87,9.44,11.01,16.61
			C97.24,107.63,97.84,111.27,97.63,115.17z"/>
		<path class="st0" d="M78.71,55.81c0.02,0.15,0,0.29-0.05,0.42c-3.43-0.13-6.71,0.47-9.81,1.94c-6.17,2.92-9.77,7.86-11.07,14.45
			c-1.51,7.64-1.05,15.12,2.14,22.35c0.65,1.48,0.9,3.13,1.34,4.7c0.28,0.52-0.01,0.55-0.41,0.47c-3.88-7.95-6.5-16.2-5.56-25.19
			c0.36-3.46,1.77-6.67,3.55-9.6c1.29-2.12,2.41-4.35,4.68-5.92C68.19,56.2,72.99,54.31,78.71,55.81z"/>
		<path class="st6" d="M60.84,100.14c0.14-0.16,0.28-0.32,0.41-0.47c0.65,0.8,1.11,1.69,1.43,3.07
			C61.35,102.05,61.25,100.99,60.84,100.14z"/>
		<path class="st7" d="M119.24,56.25c-0.01-0.32-0.03-0.63-0.04-0.95c2.68-0.4,5.37-1.09,8.04-0.05
			c5.69,2.22,10.15,5.63,11.95,11.84c1.04,3.56,2.24,7.09,1.94,10.85c-0.43,5.39-0.88,10.79-3.14,15.98
			c-0.84-1.35,0.07-2.47,0.34-3.48c0.3-1.13,0.3-2.28,0.53-3.4c1.21-5.72,1.36-11.45-0.7-17.02
			C135.18,61.91,128.78,55.72,119.24,56.25z"/>
		<path class="st8" d="M135.62,98.85c0.23-0.64,0.47-1.29,0.84-2.31C136.81,97.77,136.59,98.46,135.62,98.85z"/>
	</g>
</g>
</svg>
